<?xml version="1.0" standalone="no"?><!DOCTYPE svg PUBLIC "-//W3C//DTD SVG 1.1//EN" "http://www.w3.org/Graphics/SVG/1.1/DTD/svg11.dtd"><svg t="1668148864562" class="icon" viewBox="0 0 1024 1024" version="1.1" xmlns="http://www.w3.org/2000/svg" p-id="20658" xmlns:xlink="http://www.w3.org/1999/xlink" width="200" height="200"><path d="M890.912 938.432l-70.768-123.84c41.28-29.472 64.88-76.64 58.96-123.84L849.6 272.096c0-70.784-29.472-123.872-106.128-123.872h-135.632C607.856 95.2 566.576 48 513.504 48s-94.336 47.168-94.336 94.368h-117.952c-76.672 0-117.92 53.056-123.84 123.808l-29.472 412.8c-5.904 53.088 17.68 100.24 58.96 123.856l-76.64 123.792c-5.92 17.68 0 41.28 17.68 47.168 17.68 5.888 41.28 0 53.056-17.696l76.672-135.632h477.648l76.672 135.632c11.792 17.696 35.376 23.584 53.072 17.696 11.792 5.888 17.68-17.696 5.888-35.376v0.016zM301.216 649.488c-29.472 0-58.96-29.488-58.96-58.96s29.488-58.96 58.96-58.96c29.488 0 58.96 23.552 58.96 58.96 0 35.376-29.472 58.96-58.96 58.96z m424.592 0c-29.488 0-58.96-23.584-58.96-58.96 0-29.472 23.584-58.96 58.96-58.96 29.472 0 58.96 23.552 58.96 58.96 0 35.376-29.488 58.96-58.96 58.96z m58.96-212.32c0 23.632-17.696 41.312-41.28 41.312H283.536c-23.584 0-41.296-17.68-41.296-41.28V283.84c0-23.584 17.712-41.28 41.28-41.28h459.968c23.584 0 41.28 17.696 41.28 41.296v153.328z m-100.24 460.032H342.496c-5.904 0-17.696 5.888-17.696 17.68v17.696c0 11.792 5.904 17.68 17.696 17.68h342.032c11.792 0 17.696-5.888 17.696-17.68V914.88c0-5.888-5.904-17.68-17.696-17.68z" fill="#53A4FC" p-id="20659"></path></svg>