<?xml version="1.0" standalone="no"?><!DOCTYPE svg PUBLIC "-//W3C//DTD SVG 1.1//EN" "http://www.w3.org/Graphics/SVG/1.1/DTD/svg11.dtd"><svg t="1668148618724" class="icon" viewBox="0 0 1024 1024" version="1.1" xmlns="http://www.w3.org/2000/svg" p-id="14647" xmlns:xlink="http://www.w3.org/1999/xlink" width="200" height="200"><path d="M541.2 152.8h-49.8L491 186h50.6z" fill="#F4513B" p-id="14648"></path><path d="M748.9 318.9l66.5-66.4-66.5-66.5H416.6v132.9h126.7z" fill="#FFCF48" p-id="14649"></path><path d="M484.1 735.7c-113.2 9.8-200.4 70.2-200.4 131.5h465.2c0-61.3-87.2-121.6-200.4-131.5-10.5-0.9-21.3-1.4-32.2-1.4-10.9 0-21.7 0.5-32.2 1.4z" fill="#49A0E8" p-id="14650"></path><path d="M832 576.5L765.5 510H545.7l-0.5-41.5h37.6V335.6h-39.3l-0.2-16.6h-54l-0.2 16.6H250.5L184 402l66.5 66.5h237L487 510h-53.7v132.9h52l-1.2 92.8c10.5-0.9 21.3-1.4 32.2-1.4 10.9 0 21.7 0.5 32.2 1.4l-1.2-92.8h218.2l66.5-66.4z" fill="#F4513B" p-id="14651"></path></svg>