<?xml version="1.0" standalone="no"?><!DOCTYPE svg PUBLIC "-//W3C//DTD SVG 1.1//EN" "http://www.w3.org/Graphics/SVG/1.1/DTD/svg11.dtd"><svg t="1668148322002" class="icon" viewBox="0 0 1034 1024" version="1.1" xmlns="http://www.w3.org/2000/svg" p-id="10847" xmlns:xlink="http://www.w3.org/1999/xlink" width="201.953125" height="200"><path d="M518.7584 512m-512 0a512 512 0 1 0 1024 0 512 512 0 1 0-1024 0Z" fill="#AF90FF" p-id="10848"></path><path d="M679.5264 454.656l6.144-6.144c87.04-82.944 115.712-141.312 70.656-178.176-40.96-33.792-97.28-7.168-168.96 68.608l-6.144 7.168-3.072 3.072-219.136-50.176c-7.168-2.048-14.336 1.024-18.432 6.144l-54.272 57.344c-9.216 9.216-6.144 24.576 5.12 30.72l158.72 87.04-62.464 60.416-61.44-14.336c-7.168-2.048-13.312 1.024-18.432 5.12L267.8784 573.44c-8.192 8.192-7.168 21.504 2.048 28.672l94.208 77.824 64.512 80.896c7.168 9.216 20.48 10.24 28.672 2.048l47.104-45.056c5.12-5.12 7.168-12.288 5.12-19.456L495.2064 645.12l59.392-59.392 86.016 153.6c6.144 10.24 19.456 13.312 29.696 6.144l55.296-44.032c6.144-5.12 8.192-12.288 7.168-19.456l-53.248-227.328z m-15.36 244.736l-87.04-155.648c-6.144-11.264-21.504-13.312-30.72-4.096l-86.016 86.016c-5.12 5.12-7.168 12.288-5.12 19.456l14.336 52.224-22.528 22.528-52.224-65.536-3.072-3.072-78.848-65.536 17.408-18.432 60.416 14.336c6.144 1.024 13.312 0 18.432-5.12l89.088-86.016c9.216-9.216 7.168-24.576-4.096-31.744L334.4384 371.712l28.672-30.72L581.2224 389.12c7.168 2.048 14.336-1.024 19.456-6.144l6.144-7.168c63.488-69.632 106.496-92.16 125.952-75.776 16.384 13.312-5.12 55.296-80.896 125.952l-7.168 6.144c-5.12 5.12-7.168 12.288-6.144 19.456l53.248 225.28-27.648 22.528z" fill="#FFFFFF" p-id="10849"></path></svg>