<?xml version="1.0" standalone="no"?><!DOCTYPE svg PUBLIC "-//W3C//DTD SVG 1.1//EN" "http://www.w3.org/Graphics/SVG/1.1/DTD/svg11.dtd"><svg t="1668148895653" class="icon" viewBox="0 0 1024 1024" version="1.1" xmlns="http://www.w3.org/2000/svg" p-id="21198" xmlns:xlink="http://www.w3.org/1999/xlink" width="200" height="200"><path d="M372.6848 106.32704h55.1168v128.16384H372.6848V106.32704z m0 186.6752h55.1168v128.16384H372.6848V293.00224z m0 186.6752h55.1168v128.16384H372.6848V479.67744z m0 186.67008h55.1168v128.16896H372.6848v-128.16896z m-294.00576 131.83488L161.4336 63.8464l47.77472 7.93088-82.75968 734.33088-47.7696-7.92576z m600.79104-326.86592l-49.52064-406.784-51.99872 8.35584 49.52064 406.784 51.99872-8.35584z" fill="#9B9B9B" p-id="21199"></path><path d="M742.00576 496.8448l-2.78528 2.78528v206.1824h211.74784c0-114.23232-94.73024-208.96768-208.96256-208.96768z m41.10336 165.07392v-118.38976c59.20256 12.32896 106.0608 59.19232 118.38976 118.38976h-118.38976z" fill="#61BC00" p-id="21200"></path><path d="M847.48288 744.82176c0 94.73024-63.68256 158.41792-158.41792 158.41792-94.72512 0-158.4128-63.68768-158.4128-158.41792s63.68256-158.41792 158.4128-158.41792c5.57568 0 11.14624-2.048 16.7168 0.7424v-48.50176c-5.57056 0-11.14112-2.7904-16.7168-2.7904-114.23744 0-208.96256 91.95008-208.96256 208.96768 0 114.23232 91.95008 208.96256 208.96256 208.96256 114.23744 0 208.96256-91.94496 208.96256-208.96256v-11.15136h-50.54464v11.15136z" fill="#61BC00" p-id="21201"></path></svg>